<svg version="1.0" xmlns="http://www.w3.org/2000/svg" width="682.667" height="682.667" viewBox="0 0 512 512"><path d="M246 .6C207.7 3 175.3 11.3 143.5 26.9 92.1 52.2 52.3 92 26.9 143.5 9.4 179 .8 216.3.8 256c0 28.7 3.8 52.4 12.8 80 21.4 65.2 68 118.7 129.9 149.1 71.8 35.2 153.2 35.2 225 0 51.3-25.2 91.2-65.1 116.6-116.6 17.5-35.5 26.1-72.8 26.1-112.5s-8.6-77-26.1-112.5c-13.2-26.7-28.5-48-49.6-69.1C400.4 39.5 354.8 15.3 306 5.6c-18.5-3.7-45-5.9-60-5zm31.1 172.3c34.3 8.8 59.7 37.8 64 73.3 5.3 43.2-24.4 84.4-67.6 93.9-3.3.7-11.4 1.3-18 1.3-23.9-.1-44.5-8.8-61-25.9-32.4-33.4-32.2-86.3.5-119.5 13.9-14.1 30.4-22.2 51.5-25.4 6-.9 23.2.4 30.6 2.3z"/><path d="M245.7 189c-9.7 2.5-19 9.8-22.5 17.9-1 2.3-1.6 6.5-1.6 11.6-.1 12.8 4.5 19.9 16.3 25.3l5.4 2.5-4.4 1.5c-15.4 5.1-23 19.1-19.9 36.3 1.4 8 5.2 15.1 10.4 19.5 13.9 11.9 46.4 11.8 60.4-.1 2.4-2.1 5.4-6.3 7.4-10.2 2.9-6 3.2-7.5 3.3-15.7 0-8-.3-9.8-2.9-14.9-3.2-6.6-10.3-12.9-16.7-14.8-2.1-.7-3.9-1.5-3.9-1.9 0-.4 1.9-1.2 4.1-1.9 6.1-1.8 13.3-9.5 15.3-16.2 4.6-15.5-1.9-29.8-16.7-36.5-5.5-2.5-7.5-2.8-18.2-3-6.6-.2-13.7.1-15.8.6zm22.9 12.5c5.4 1.6 10.6 6.2 12.3 10.8 1.7 4.4 1.3 12.7-.8 17.4-1.2 2.6-3.5 5.2-6.2 7-3.7 2.4-5.4 2.8-13.1 3.1-10.7.5-16.4-1.7-20.5-8-5.2-7.7-3.9-20 2.6-26.2 5.4-5.2 16.3-6.9 25.7-4.1zm1.7 53.1c15 5.1 19.7 25.9 8.6 37.9-4.7 5.1-10.7 7.5-18.6 7.5-9 0-14.1-1.8-19.4-6.9-3.9-3.9-4.9-5.5-5.9-10.4-1.2-6-.7-12 1.5-17.3 1.5-3.7 8-9.3 12.6-11 4.8-1.8 15.8-1.7 21.2.2z"/></svg>